<?xml version="1.0" encoding="UTF-8"?>
<svg xmlns="http://www.w3.org/2000/svg" id="Layer_1" data-name="Layer 1" viewBox="0 0 819.58 294.57"><defs><style>.cls-1{fill:#00428b;}</style></defs><title>Tas_rgb</title><path class="cls-1" d="M459.58,176.35a1.5,1.5,0,0,0-1.52-1.58l-108,.06A21.5,21.5,0,0,0,336.2,180c-4.22,3.31-6.59,7.21-7.14,11.75a13.83,13.83,0,0,0,4.24,11.91,17,17,0,0,0,12.62,5.1l127.36-.08c1.08,0,1.33-1.31.46-1.94C460.19,196.82,459.38,181.31,459.58,176.35Z" transform="translate(-2.37 -2.11)"/><path class="cls-1" d="M792.52,124.9h-.1a28.84,28.84,0,0,0,17.14-21.36L822,2.11l-195.81.12c-28.25,0-66.32-.12-87.77,40.18a93.34,93.34,0,0,0-9-10.59C510.49,12.27,485.69,2.33,455.89,2.33L316.18,2.19a.41.41,0,0,0-.23.75L336.2,16.83a2.23,2.23,0,0,1,0,3.66l-19.69,14a.41.41,0,0,0,.24.74l135.16-.17q32.16,0,52.58,21.08,20.61,20.94,17.05,50.23l-2.43,31.38c-3.5,40.68,13.73,71.51,68.35,71.51l111-.06a21,21,0,0,0,13.69-5.12q6.32-5.16,7.15-11.91A13.39,13.39,0,0,0,715,180.41a16.43,16.43,0,0,0-12.42-5.12l-97.27.06c-48.75,0-52.47-18.25-48.89-70.5,3.7-53.73,29.68-69.92,65.69-69.92l163.07-.1-6.49,53.25a4.68,4.68,0,0,1-4.64,4.11l-138.6.1a21.35,21.35,0,0,0-13.86,5.18c-4.23,3.36-6.6,7.31-7.16,11.89a14.1,14.1,0,0,0,4.22,12,17,17,0,0,0,12.64,5.18l86.28-.07q29.6,0,48.2,20.71,18.78,20.94,15.51,47.69-3.32,27.12-27.2,48-23.86,20.61-53.27,20.62l-377.29.24q-29.76,0-48.38-20.56-18.81-20.91-15.47-48,3.24-26.79,27.14-47.72,23.65-20.73,53.46-20.77l119-.07,2.12-17.22a13.62,13.62,0,0,0-4.27-11.87,16.27,16.27,0,0,0-12.42-5.16l-230,.13a38.67,38.67,0,0,0-38.36,34L160.13,259.34A5.19,5.19,0,0,1,155,263.9l-61.13,0,18.85-154.3a15.18,15.18,0,0,0-15.08-17l-58.22,0a2.8,2.8,0,0,1-2.77-3.13L43.28,35.3l238.13,0a4.19,4.19,0,0,0,2.37-.73L304.5,20.41a2.23,2.23,0,0,0,.07-3.64L286.08,3a4.24,4.24,0,0,0-2.52-.84l-269-.05L2.49,101.34c-1.31,13.33,8.27,24,21.65,24v0l48,0a5.25,5.25,0,0,1,5.22,5.89c-5.82,47.61-20.21,165.45-20.21,165.45l106.52-.08v0c13.6,0,26-11,27.62-24.61h0l16.05-131.43a17.39,17.39,0,0,1,17.25-15.27l41.08,0c-22.12,19.77-35.52,44-38.72,70-3.28,26.75,4.5,51.43,22.41,71.37,17.77,19.62,42,29.93,70.19,29.9l377.26-.23c28.29,0,54.24-10,77.11-29.78,23-20.21,36.81-44.91,40.08-71.61,3.17-26-4.32-50.19-21.59-70Z" transform="translate(-2.37 -2.11)"/></svg>